<svg xmlns="http://www.w3.org/2000/svg" viewBox="0 0 3808.38 862.28"><path d="M1089,123.45a476.41,476.41,0,0,0-133.21-19.27c-49.23,0-95.72,7.87-139.23,20.85C609.79,186.77,473.75,364.22,473.75,364.22l-101,139.58s16.07,6.6,44.83,14.59c5.72,1.6,11.94,3.21,18.67,4.88-3.87,3.65-85.24,79.56-110.5,197.82-4.6,21.54-4.65,30.46-.52,30.46,18.51,0,121-179.92,272-206.26l7.16.16c4.88.12,9.83.16,14.83.16s10.33,0,15.57-.09a784.2,784.2,0,0,0,158.48-18.39c5.42-1.18,10.87-2,16.35-4.19l.45-.19c-.1.34-.21.69-.34,1C741.45,724.12,509.76,845.15,557.1,845.15a70,70,0,0,0,11.61-1.31C656,828.3,910.62,735.19,1031.36,435.47c0-.12,116-58.92,182.26-156.49,60.61-89.24,138.07-130.71,180.92-150.2,5.14-2.34,8.46-57.2-46.53-89.12-27.51-16-53.52-22.54-78-22.54C1193.12,17.12,1131.88,82.21,1089,123.45Z" style="fill:#3c56f5"/><path d="M1348,39.66c-27.51-16-53.52-22.54-78-22.54-76.94,0-138.18,65.09-181.08,106.33a476.41,476.41,0,0,0-133.21-19.27c-49.23,0-95.72,7.87-139.23,20.85C609.79,186.77,473.75,364.22,473.75,364.22l-101,139.58s16.07,6.6,44.83,14.59c5.72,1.6,11.94,3.21,18.67,4.88-3.87,3.65-85.24,79.56-110.5,197.82-4.6,21.54-4.65,30.46-.52,30.46,18.51,0,121-179.92,272-206.26l7.16.16c4.88.12,9.83.16,14.83.16s10.33,0,15.57-.09a784.2,784.2,0,0,0,158.48-18.39c5.42-1.18,10.87-2,16.35-4.19l.45-.19c-.1.34-.21.69-.34,1C741.45,724.12,509.76,845.15,557.1,845.15a70,70,0,0,0,11.61-1.31C656,828.3,910.62,735.19,1031.36,435.47c0-.12,116-58.92,182.26-156.49,60.61-89.24,138.07-130.71,180.92-150.2C1399.68,126.44,1403,71.58,1348,39.66Z" style="fill:none"/><path d="M1059.38,464c2.79,20.34,4.49,41.22,2.81,56-14.26,125.32-130.34,245-80.54,224.73s185.94-104.94,197-298.24c.94-16.56-1-41.23-4.11-67.77-45.18,41.35-91.11,69.72-114.08,82.76C1060.1,462.33,1059.73,463.15,1059.38,464Z" style="fill:#c8d0fc"/><path d="M635.14,582.34h-.08c-4.89,0-10.43.09-15.89.09-5.88,0-11-.06-15.73-.17l-3.05-.07c-63.58,60.42-141.15,89.19-79.14,82.59,92.6-9.88,165.11-57.39,203.91-88.65a816.48,816.48,0,0,1-89.94,6.21Z" style="fill:#c8d0fc"/><path d="M1698.88,732.22h-73.16L1503.37,551.35V732.22h-73.15V439h73.15l122.35,181.7V439h73.16Z" style="fill:#3c56f5"/><path d="M1794.45,721a108.44,108.44,0,0,1-44.06-41.78q-16-27.13-16.05-63.49,0-35.92,16.26-63.28a109.17,109.17,0,0,1,44.49-42q28.25-14.62,63.32-14.62t63.31,14.62a109.17,109.17,0,0,1,44.49,42q16.26,27.36,16.26,63.28T1966,679a110.29,110.29,0,0,1-44.92,42q-28.45,14.63-63.53,14.62T1794.45,721Zm98.82-62.24q14.76-15,14.76-43t-14.33-43a46.83,46.83,0,0,0-35.29-15q-21.4,0-35.51,14.83t-14.12,43.23q0,28,13.9,43t34.87,15A48.22,48.22,0,0,0,1893.27,658.71Z" style="fill:#3c56f5"/><path d="M2144.05,671.66v60.56h-37.22q-39.78,0-62-19t-22.25-62V558.45h-29.09V499.14h29.09V442.33h73.16v56.81h47.91v59.31h-47.91V652q0,10.46,5.13,15t17.11,4.6Z" style="fill:#3c56f5"/><path d="M2399.58,632.81H2234q1.71,21.72,14.34,33.21t31,11.48q27.38,0,38.08-22.55h77.86a103.55,103.55,0,0,1-21.61,41.35,107.88,107.88,0,0,1-39.14,28.82q-23.53,10.46-52.62,10.45-35.08,0-62.46-14.62a105.24,105.24,0,0,1-42.78-41.78q-15.41-27.13-15.4-63.49t15.18-63.49A103.92,103.92,0,0,1,2219,510.42q27.38-14.62,62.89-14.62,34.65,0,61.6,14.2a103.3,103.3,0,0,1,42.14,40.52q15.18,26.31,15.19,61.4A179.27,179.27,0,0,1,2399.58,632.81ZM2326,593.12q0-18.37-12.83-29.24T2281.07,553q-18.39,0-31,10.45t-15.62,29.65Z" style="fill:#3c56f5"/><path d="M2535.27,505.82q19.26-10,44.07-10,29.52,0,53.47,14.62t37.87,41.77q13.89,27.15,13.9,63.07t-13.9,63.29q-13.92,27.36-37.87,42.19t-53.47,14.83q-25.24,0-44.07-9.82t-29.51-26.11v32.58H2432.6V423.12h73.16v109Q2516,515.85,2535.27,505.82ZM2595,573.28Q2579.77,558,2557.52,558a49.92,49.92,0,0,0-37,15.45q-15.2,15.46-15.19,42.19t15.19,42.19a52,52,0,0,0,74.22-.21q15.41-15.66,15.4-42.4T2595,573.28Z" style="fill:#3c56f5"/><path d="M2763.12,721a108.53,108.53,0,0,1-44.07-41.78q-16-27.13-16-63.49,0-35.92,16.26-63.28a109.17,109.17,0,0,1,44.49-42q28.23-14.62,63.32-14.62t63.31,14.62a109.23,109.23,0,0,1,44.49,42q16.26,27.36,16.26,63.28T2934.67,679a110.29,110.29,0,0,1-44.92,42q-28.45,14.63-63.53,14.62T2763.12,721Zm98.82-62.24q14.76-15,14.76-43t-14.33-43a46.83,46.83,0,0,0-35.29-15q-21.4,0-35.51,14.83t-14.12,43.23q0,28,13.9,43t34.87,15A48.22,48.22,0,0,0,2861.94,658.71Z" style="fill:#3c56f5"/><path d="M3029,721a108.47,108.47,0,0,1-44.07-41.78q-16-27.13-16-63.49,0-35.92,16.25-63.28a109.19,109.19,0,0,1,44.5-42q28.23-14.62,63.31-14.62t63.32,14.62a109.23,109.23,0,0,1,44.49,42Q3217,579.76,3217,615.68T3200.5,679a110.22,110.22,0,0,1-44.92,42q-28.44,14.63-63.52,14.62T3029,721Zm98.82-62.24q14.76-15,14.76-43t-14.33-43a46.85,46.85,0,0,0-35.3-15q-21.39,0-35.51,14.83t-14.11,43.23q0,28,13.9,43t34.87,15A48.22,48.22,0,0,0,3127.78,658.71Z" style="fill:#3c56f5"/><path d="M3394.21,732.22l-72.72-97.74v97.74h-73.16V423.12h73.16V594l72.3-94.82h90.26l-99.25,117,100.11,116.12Z" style="fill:#3c56f5"/><path d="M1571.36,181.55q27.65,13.89,42.71,39.59t15.06,59.64q0,33.93-15.06,59.31t-42.71,39.27q-27.64,13.9-64,13.9h-80.78V167.65h80.78Q1543.72,167.65,1571.36,181.55Zm-9.43,153.85q19.86-19.39,19.86-54.62t-19.86-55.11q-19.86-19.89-56.28-19.88h-32.77v149h32.77Q1542.06,354.79,1561.93,335.4Z" style="fill:#c8d0fc"/><path d="M1829.43,317.3H1695.37q1.65,19.4,13.9,30.38t30.12,11q25.83,0,36.75-21.65h50q-7.93,25.86-30.45,42.5t-55.28,16.65q-26.49,0-47.51-11.48a81.62,81.62,0,0,1-32.77-32.48q-11.76-21-11.75-48.48,0-27.8,11.59-48.81a79.76,79.76,0,0,1,32.44-32.32q20.85-11.31,48-11.32,26.14,0,46.84,11a78.44,78.44,0,0,1,32.11,31.19q11.42,20.21,11.42,46.39A104.55,104.55,0,0,1,1829.43,317.3Zm-46.67-30.38q-.33-17.46-12.91-28t-30.79-10.51q-17.22,0-29,10.19t-14.4,28.28Z" style="fill:#c8d0fc"/><path d="M1927.78,351.56l46.35-137.37h49.32l-67.86,179.07h-56.28l-67.53-179.07h49.66Z" style="fill:#c8d0fc"/><path d="M2204.89,317.3H2070.82q1.65,19.4,13.91,30.38t30.12,11q25.82,0,36.74-21.65h50q-7.95,25.86-30.46,42.5t-55.28,16.65q-26.49,0-47.5-11.48a81.56,81.56,0,0,1-32.77-32.48q-11.76-21-11.76-48.48,0-27.8,11.59-48.81a79.82,79.82,0,0,1,32.44-32.32q20.86-11.31,48-11.32,26.14,0,46.84,11a78.38,78.38,0,0,1,32.11,31.19q11.43,20.21,11.42,46.39A104.62,104.62,0,0,1,2204.89,317.3Zm-46.68-30.38q-.33-17.46-12.91-28t-30.78-10.51q-17.22,0-29,10.19t-14.4,28.28Z" style="fill:#c8d0fc"/><path d="M2280.56,154.07V393.26h-46.34V154.07Z" style="fill:#c8d0fc"/><path d="M2354.48,384.69a83.62,83.62,0,0,1-33.27-32.48q-12.09-21-12.08-48.48t12.41-48.49a85.43,85.43,0,0,1,33.93-32.48q21.53-11.47,48-11.48t48,11.48a85.43,85.43,0,0,1,33.93,32.48q12.4,21,12.41,48.49t-12.74,48.48a87.31,87.31,0,0,1-34.43,32.48q-21.69,11.47-48.5,11.48Q2375.66,396.17,2354.48,384.69Zm71.34-33.94a44,44,0,0,0,17.71-17.93q6.61-12,6.62-29.09,0-25.53-13.74-39.28t-33.6-13.73q-19.86,0-33.27,13.73t-13.4,39.28q0,25.53,13.07,39.27t32.94,13.73A49.1,49.1,0,0,0,2425.82,350.75Z" style="fill:#c8d0fc"/><path d="M2596.53,219.53q15.72-8.25,35.92-8.25A81.69,81.69,0,0,1,2675,222.6q19,11.31,30.13,32.16t11.09,48.32q0,27.48-11.09,48.64T2675,384.53a79.91,79.91,0,0,1-42.53,11.64q-20.2,0-35.59-8.08a75.85,75.85,0,0,1-25-20.37V478.59h-46.35V214.19h46.35v25.86Q2580.81,227.77,2596.53,219.53Zm65.54,55.59a46.46,46.46,0,0,0-17.87-17.94,48.82,48.82,0,0,0-24-6.14,47.27,47.27,0,0,0-41.55,24.56q-6.78,12-6.78,28.13t6.78,28.12A47.55,47.55,0,0,0,2644.2,350a48.45,48.45,0,0,0,17.87-18.43q6.78-12,6.79-28.44Q2668.86,286.93,2662.07,275.12Z" style="fill:#c8d0fc"/><path d="M2914.88,317.3H2780.81q1.67,19.4,13.91,30.38t30.12,11q25.83,0,36.75-21.65h50q-7.93,25.86-30.45,42.5t-55.29,16.65q-26.48,0-47.5-11.48a81.56,81.56,0,0,1-32.77-32.48q-11.76-21-11.75-48.48,0-27.8,11.58-48.81a79.88,79.88,0,0,1,32.44-32.32q20.86-11.31,48-11.32,26.16,0,46.85,11a78.44,78.44,0,0,1,32.11,31.19q11.41,20.21,11.42,46.39A104.55,104.55,0,0,1,2914.88,317.3Zm-46.67-30.38q-.35-17.46-12.91-28t-30.79-10.51q-17.22,0-29,10.19t-14.4,28.28Z" style="fill:#c8d0fc"/><path d="M3014.09,219.69q14.4-8.08,32.94-8.08v47.51h-12.25q-21.86,0-32.94,10t-11.09,34.91v89.21h-46.34V214.19h46.34V242A64.5,64.5,0,0,1,3014.09,219.69Z" style="fill:#c8d0fc"/></svg>